Exact Audio Copy V0.99 prebeta 1 from 25. May 2007

EAC 抓取日志文件从21. 二月 2011, 22:02

冯健雪 / 20世纪中华歌坛名人百集珍藏版

使用驱动器  ：PIONEER DVD-RW  DVR-115   Adapter: 0  ID: 0

读取模式     : 保护
使用精确流   : 是
废除音频缓冲 : 是
使用 C2 指针 : 否

组合读/写偏移校正              : 48
读取 Lead-In 和 Lead-Out       : 否
用静音填充抓取中丢失偏移的采样 : 是
去除首尾静音块                 : 否
已用接口                       : Win NT 及 2000 本地 Win32 接口

所用输出格式 : 内部 WAV 函数
样本格式     : 44.100 Hz;16 Bit;立体声
使用压缩偏移 : 48


被抓轨 CD 的 TOC

     音轨 |   开始   |   长度   | 起始扇区 | 结尾扇区 
    --------------------------------------------------
       1  |  0:00.32 |  5:34.65 |      32  |   25146  
       2  |  5:35.22 |  2:25.60 |   25147  |   36081  
       3  |  8:01.07 |  3:21.50 |   36082  |   51206  
       4  | 11:22.57 |  2:52.08 |   51207  |   64114  
       5  | 14:14.65 |  3:46.37 |   64115  |   81101  
       6  | 18:01.27 |  3:29.00 |   81102  |   96776  
       7  | 21:30.27 |  2:33.08 |   96777  |  108259  
       8  | 24:03.35 |  2:05.42 |  108260  |  117676  
       9  | 26:09.02 |  3:14.50 |  117677  |  132276  
      10  | 29:23.52 |  3:55.65 |  132277  |  149966  
      11  | 33:19.42 |  1:59.68 |  149967  |  158959  
      12  | 35:19.35 |  4:03.07 |  158960  |  177191  
      13  | 39:22.42 |  3:47.18 |  177192  |  194234  
      14  | 43:09.60 |  3:00.35 |  194235  |  207769  
      15  | 46:10.20 |  4:48.02 |  207770  |  229371  
      16  | 50:58.22 |  4:10.20 |  229372  |  248141  


范围状态及错误

已选择范围

     文件名 E:\20世纪中华歌坛名人百集珍藏版-冯健雪[lwg188原创]\冯健雪 - 20世纪中华歌坛名人百集珍藏版.wav

     峰值电平 90.5 %
     范围质量 99.9 %
     复制 CRC FFCEA0DD
     复制成功

没有错误发生

状态报告结尾
